<?xml version="1.0" encoding="UTF-8" standalone="no"?>
<!DOCTYPE svg PUBLIC "-//W3C//DTD SVG 1.1//EN" "http://www.w3.org/Graphics/SVG/1.1/DTD/svg11.dtd">
<svg width="100%" height="100%" viewBox="0 0 787 573" version="1.1" xmlns="http://www.w3.org/2000/svg" xmlns:xlink="http://www.w3.org/1999/xlink" xml:space="preserve" xmlns:serif="http://www.serif.com/" style="fill-rule:evenodd;clip-rule:evenodd;stroke-linejoin:round;stroke-miterlimit:2;">
    <circle cx="458.321" cy="74.182" r="26.701" style="fill:rgb(75,96,123);"/>
    <g transform="matrix(1,0,0,1,-206.59,-163.871)">
        <path d="M872.038,661.023C911.725,630.794 930.681,579.998 918.814,531.541C918.519,530.337 918.208,529.135 917.88,527.937C910.013,499.174 890.549,471.836 862.18,462.646C838.36,454.929 812.361,460.863 787.511,457.794C738.729,451.77 700.91,412.3 674.3,370.975C647.689,329.649 627.238,283.392 591.878,249.251C533.593,192.975 438.516,180.859 366.251,217.49C293.987,254.121 247.955,335.391 249.918,416.386C251.881,497.381 299.964,574.817 369.793,615.903C395.445,630.996 425.114,641.688 454.641,637.946C480.261,634.7 503.54,620.934 529.04,616.847C569.131,610.421 608.967,628.548 643.642,649.67C678.318,670.793 711.813,695.83 751.217,705.623C789.478,715.131 836.881,687.801 872.038,661.023Z" style="fill:rgb(75,96,123);fill-rule:nonzero;"/>
    </g>
    <g transform="matrix(1,0,0,1,-206.59,-163.871)">
        <path d="M815.016,219.191C814.146,218.611 813.266,218.061 812.396,217.501C787.247,201.417 760.291,188.35 732.086,178.571L725.546,268.791L684.086,268.791L684.086,165.401C681.476,164.861 678.846,164.351 676.216,163.871L676.216,268.791L626.946,268.791C570.842,268.791 524.676,222.625 524.676,166.521L524.676,166.521C522.036,167.091 519.416,167.701 516.796,168.351L516.796,268.791L476.666,268.791L470.436,182.761C441.451,193.877 413.933,208.496 388.496,226.291C388.056,226.591 387.616,226.901 387.186,227.201C384.976,228.751 382.796,230.331 380.626,231.931L380.626,576.121L498.896,576.121L496.806,547.171L485.306,388.221L716.896,388.221L705.396,547.171L703.306,576.121L820.266,576.121L820.266,222.671C818.526,221.491 816.776,220.331 815.016,219.191ZM516.796,361.971L483.406,361.971L477.236,276.671L516.796,276.671L516.796,361.971ZM676.216,361.971L620.136,361.971L620.136,360.281C620.136,356.891 617.346,354.101 613.956,354.101C613.953,354.101 613.949,354.101 613.946,354.101L589.566,354.101C589.565,354.101 589.564,354.101 589.564,354.101C586.175,354.101 583.386,356.89 583.386,360.279L583.386,361.971L524.676,361.971L524.676,276.671L676.216,276.671L676.216,361.971ZM684.086,361.971L684.086,276.671L724.976,276.671L718.806,361.971L684.086,361.971Z" style="fill:rgb(42,72,114);fill-rule:nonzero;"/>
    </g>
    <g transform="matrix(1,0,0,1,-206.59,-163.871)">
        <path d="M206.59,598.162C215.277,608.455 224.673,618.129 234.71,627.112L965.29,628.112C975.327,619.129 984.723,609.455 993.41,599.162L206.59,598.162Z" style="fill:rgb(42,72,114);fill-rule:nonzero;"/>
    </g>
    <g transform="matrix(1,0,0,1,-206.59,-163.871)">
        <path d="M702.02,505.462L702.02,591.166C702.022,593.425 703.88,595.284 706.139,595.286L833.143,595.286C835.402,595.284 837.261,593.425 837.263,591.166L837.263,505.462C837.257,503.206 835.4,501.351 833.143,501.348L706.139,501.348C703.882,501.351 702.025,503.206 702.02,505.462Z" style="fill:rgb(42,72,114);fill-rule:nonzero;"/>
    </g>
    <g transform="matrix(1,0,0,1,-206.59,-163.871)">
        <path d="M704.999,506.529L704.999,590.109C705.001,591.316 705.994,592.309 707.201,592.311L832.086,592.311C833.293,592.309 834.286,591.316 834.288,590.109L834.288,506.529C834.288,505.32 833.295,504.325 832.086,504.323L707.201,504.323C705.992,504.325 705,505.32 704.999,506.529Z" style="fill:rgb(0,191,166);fill-rule:nonzero;"/>
    </g>
    <g transform="matrix(1,0,0,1,-206.59,-163.871)">
        <path d="M699.364,607.881C699.835,608.472 700.552,608.815 701.307,608.811L837.299,608.811C838.671,608.809 839.798,607.68 839.798,606.308C839.798,606.136 839.781,605.964 839.745,605.795L837.634,595.768C837.457,594.938 836.869,594.253 836.076,593.95C835.793,593.839 835.492,593.782 835.188,593.783L703.41,593.783C703.106,593.782 702.805,593.839 702.522,593.95C701.729,594.253 701.141,594.938 700.964,595.768L698.853,605.795C698.701,606.531 698.889,607.298 699.364,607.881Z" style="fill:rgb(21,44,75);fill-rule:nonzero;"/>
    </g>
    <g transform="matrix(-1,7.65714e-16,-7.65714e-16,-1,1457.67,1029.82)">
        <path d="M834.222,596.077C834.222,595.807 834.004,595.588 833.734,595.588L830.522,595.588C830.253,595.588 830.034,595.807 830.034,596.077L830.034,597.613C830.034,597.883 830.253,598.102 830.522,598.102L833.734,598.102C834.004,598.102 834.222,597.883 834.222,597.613L834.222,596.077Z" style="fill:rgb(42,72,114);"/>
    </g>
    <g transform="matrix(-1,7.65714e-16,-7.65714e-16,-1,1440.91,1029.82)">
        <path d="M825.845,596.077C825.845,595.807 825.627,595.588 825.357,595.588L822.145,595.588C821.876,595.588 821.657,595.807 821.657,596.077L821.657,597.613C821.657,597.883 821.876,598.102 822.145,598.102L825.357,598.102C825.627,598.102 825.845,597.883 825.845,597.613L825.845,596.077Z" style="fill:rgb(42,72,114);"/>
    </g>
    <g transform="matrix(-1,7.65714e-16,-7.65714e-16,-1,1424.16,1029.82)">
        <path d="M817.468,596.077C817.468,595.807 817.25,595.588 816.98,595.588L813.768,595.588C813.499,595.588 813.28,595.807 813.28,596.077L813.28,597.613C813.28,597.883 813.499,598.102 813.768,598.102L816.98,598.102C817.25,598.102 817.468,597.883 817.468,597.613L817.468,596.077Z" style="fill:rgb(42,72,114);"/>
    </g>
    <g transform="matrix(-1,7.65714e-16,-7.65714e-16,-1,1407.4,1029.82)">
        <path d="M809.091,596.077C809.091,595.807 808.873,595.588 808.603,595.588L805.391,595.588C805.122,595.588 804.903,595.807 804.903,596.077L804.903,597.613C804.903,597.883 805.122,598.102 805.391,598.102L808.603,598.102C808.873,598.102 809.091,597.883 809.091,597.613L809.091,596.077Z" style="fill:rgb(42,72,114);"/>
    </g>
    <g transform="matrix(-1,7.65714e-16,-7.65714e-16,-1,1390.65,1029.82)">
        <path d="M800.714,596.077C800.714,595.807 800.496,595.588 800.226,595.588L797.014,595.588C796.745,595.588 796.526,595.807 796.526,596.077L796.526,597.613C796.526,597.883 796.745,598.102 797.014,598.102L800.226,598.102C800.496,598.102 800.714,597.883 800.714,597.613L800.714,596.077Z" style="fill:rgb(42,72,114);"/>
    </g>
    <g transform="matrix(-1,7.65714e-16,-7.65714e-16,-1,1373.9,1029.82)">
        <path d="M792.337,596.077C792.337,595.807 792.119,595.588 791.849,595.588L788.637,595.588C788.368,595.588 788.149,595.807 788.149,596.077L788.149,597.613C788.149,597.883 788.368,598.102 788.637,598.102L791.849,598.102C792.119,598.102 792.337,597.883 792.337,597.613L792.337,596.077Z" style="fill:rgb(42,72,114);"/>
    </g>
    <g transform="matrix(-1,7.65714e-16,-7.65714e-16,-1,1357.14,1029.82)">
        <path d="M783.96,596.077C783.96,595.807 783.742,595.588 783.472,595.588L780.26,595.588C779.991,595.588 779.772,595.807 779.772,596.077L779.772,597.613C779.772,597.883 779.991,598.102 780.26,598.102L783.472,598.102C783.742,598.102 783.96,597.883 783.96,597.613L783.96,596.077Z" style="fill:rgb(42,72,114);"/>
    </g>
    <g transform="matrix(-1,7.65714e-16,-7.65714e-16,-1,1340.39,1029.82)">
        <path d="M775.583,596.077C775.583,595.807 775.365,595.588 775.095,595.588L771.883,595.588C771.614,595.588 771.395,595.807 771.395,596.077L771.395,597.613C771.395,597.883 771.614,598.102 771.883,598.102L775.095,598.102C775.365,598.102 775.583,597.883 775.583,597.613L775.583,596.077Z" style="fill:rgb(42,72,114);"/>
    </g>
    <g transform="matrix(-1,7.65714e-16,-7.65714e-16,-1,1323.63,1029.82)">
        <path d="M767.206,596.077C767.206,595.807 766.988,595.588 766.718,595.588L763.506,595.588C763.237,595.588 763.018,595.807 763.018,596.077L763.018,597.613C763.018,597.883 763.237,598.102 763.506,598.102L766.718,598.102C766.988,598.102 767.206,597.883 767.206,597.613L767.206,596.077Z" style="fill:rgb(42,72,114);"/>
    </g>
    <g transform="matrix(-1,7.65714e-16,-7.65714e-16,-1,1306.88,1029.82)">
        <path d="M758.829,596.077C758.829,595.807 758.611,595.588 758.341,595.588L755.129,595.588C754.86,595.588 754.641,595.807 754.641,596.077L754.641,597.613C754.641,597.883 754.86,598.102 755.129,598.102L758.341,598.102C758.611,598.102 758.829,597.883 758.829,597.613L758.829,596.077Z" style="fill:rgb(42,72,114);"/>
    </g>
    <g transform="matrix(-1,7.65714e-16,-7.65714e-16,-1,1290.13,1029.82)">
        <path d="M750.452,596.077C750.452,595.807 750.234,595.588 749.964,595.588L746.752,595.588C746.483,595.588 746.264,595.807 746.264,596.077L746.264,597.613C746.264,597.883 746.483,598.102 746.752,598.102L749.964,598.102C750.234,598.102 750.452,597.883 750.452,597.613L750.452,596.077Z" style="fill:rgb(42,72,114);"/>
    </g>
    <g transform="matrix(-1,7.65714e-16,-7.65714e-16,-1,1273.37,1029.82)">
        <path d="M742.075,596.077C742.075,595.807 741.857,595.588 741.587,595.588L738.375,595.588C738.106,595.588 737.887,595.807 737.887,596.077L737.887,597.613C737.887,597.883 738.106,598.102 738.375,598.102L741.587,598.102C741.857,598.102 742.075,597.883 742.075,597.613L742.075,596.077Z" style="fill:rgb(42,72,114);"/>
    </g>
    <g transform="matrix(-1,7.65714e-16,-7.65714e-16,-1,1256.62,1029.82)">
        <path d="M733.699,596.077C733.699,595.807 733.48,595.588 733.21,595.588L729.998,595.588C729.729,595.588 729.51,595.807 729.51,596.077L729.51,597.613C729.51,597.883 729.729,598.102 729.998,598.102L733.21,598.102C733.48,598.102 733.699,597.883 733.699,597.613L733.699,596.077Z" style="fill:rgb(42,72,114);"/>
    </g>
    <g transform="matrix(-1,7.65714e-16,-7.65714e-16,-1,1239.86,1029.82)">
        <path d="M725.322,596.077C725.322,595.807 725.103,595.588 724.833,595.588L721.621,595.588C721.352,595.588 721.133,595.807 721.133,596.077L721.133,597.613C721.133,597.883 721.352,598.102 721.621,598.102L724.833,598.102C725.103,598.102 725.322,597.883 725.322,597.613L725.322,596.077Z" style="fill:rgb(42,72,114);"/>
    </g>
    <g transform="matrix(-1,7.65714e-16,-7.65714e-16,-1,1223.11,1029.82)">
        <path d="M716.945,596.077C716.945,595.807 716.726,595.588 716.456,595.588L713.244,595.588C712.975,595.588 712.756,595.807 712.756,596.077L712.756,597.613C712.756,597.883 712.975,598.102 713.244,598.102L716.456,598.102C716.726,598.102 716.945,597.883 716.945,597.613L716.945,596.077Z" style="fill:rgb(42,72,114);"/>
    </g>
    <g transform="matrix(-1,7.65714e-16,-7.65714e-16,-1,1206.36,1029.82)">
        <path d="M708.568,596.077C708.568,595.807 708.349,595.588 708.079,595.588L704.867,595.588C704.598,595.588 704.379,595.807 704.379,596.077L704.379,597.613C704.379,597.883 704.598,598.102 704.867,598.102L708.079,598.102C708.349,598.102 708.568,597.883 708.568,597.613L708.568,596.077Z" style="fill:rgb(42,72,114);"/>
    </g>
    <g transform="matrix(-1,7.65714e-16,-7.65714e-16,-1,1457.86,1038.2)">
        <path d="M834.321,600.265C834.321,599.996 834.103,599.777 833.833,599.777L830.621,599.777C830.352,599.777 830.133,599.996 830.133,600.265L830.133,601.802C830.133,602.071 830.352,602.29 830.621,602.29L833.833,602.29C834.103,602.29 834.321,602.071 834.321,601.802L834.321,600.265Z" style="fill:rgb(42,72,114);"/>
    </g>
    <g transform="matrix(-1,7.65714e-16,-7.65714e-16,-1,1441.11,1038.2)">
        <path d="M825.944,600.265C825.944,599.996 825.726,599.777 825.456,599.777L822.244,599.777C821.975,599.777 821.756,599.996 821.756,600.265L821.756,601.802C821.756,602.071 821.975,602.29 822.244,602.29L825.456,602.29C825.726,602.29 825.944,602.071 825.944,601.802L825.944,600.265Z" style="fill:rgb(42,72,114);"/>
    </g>
    <g transform="matrix(-1,7.65714e-16,-7.65714e-16,-1,1424.36,1038.2)">
        <path d="M817.567,600.265C817.567,599.996 817.349,599.777 817.079,599.777L813.867,599.777C813.598,599.777 813.379,599.996 813.379,600.265L813.379,601.802C813.379,602.071 813.598,602.29 813.867,602.29L817.079,602.29C817.349,602.29 817.567,602.071 817.567,601.802L817.567,600.265Z" style="fill:rgb(42,72,114);"/>
    </g>
    <g transform="matrix(-1,7.65714e-16,-7.65714e-16,-1,1407.6,1038.2)">
        <path d="M809.19,600.265C809.19,599.996 808.972,599.777 808.702,599.777L805.49,599.777C805.221,599.777 805.002,599.996 805.002,600.265L805.002,601.802C805.002,602.071 805.221,602.29 805.49,602.29L808.702,602.29C808.972,602.29 809.19,602.071 809.19,601.802L809.19,600.265Z" style="fill:rgb(42,72,114);"/>
    </g>
    <g transform="matrix(-1,7.65714e-16,-7.65714e-16,-1,1390.85,1038.2)">
        <path d="M800.813,600.265C800.813,599.996 800.595,599.777 800.325,599.777L797.113,599.777C796.844,599.777 796.625,599.996 796.625,600.265L796.625,601.802C796.625,602.071 796.844,602.29 797.113,602.29L800.325,602.29C800.595,602.29 800.813,602.071 800.813,601.802L800.813,600.265Z" style="fill:rgb(42,72,114);"/>
    </g>
    <g transform="matrix(-1,7.65714e-16,-7.65714e-16,-1,1374.09,1038.2)">
        <path d="M792.436,600.265C792.436,599.996 792.218,599.777 791.948,599.777L788.736,599.777C788.467,599.777 788.248,599.996 788.248,600.265L788.248,601.802C788.248,602.071 788.467,602.29 788.736,602.29L791.948,602.29C792.218,602.29 792.436,602.071 792.436,601.802L792.436,600.265Z" style="fill:rgb(42,72,114);"/>
    </g>
    <g transform="matrix(-1,7.65714e-16,-7.65714e-16,-1,1357.34,1038.2)">
        <path d="M784.059,600.265C784.059,599.996 783.841,599.777 783.571,599.777L780.359,599.777C780.09,599.777 779.871,599.996 779.871,600.265L779.871,601.802C779.871,602.071 780.09,602.29 780.359,602.29L783.571,602.29C783.841,602.29 784.059,602.071 784.059,601.802L784.059,600.265Z" style="fill:rgb(42,72,114);"/>
    </g>
    <g transform="matrix(-1,7.65714e-16,-7.65714e-16,-1,1340.59,1038.2)">
        <path d="M775.682,600.265C775.682,599.996 775.464,599.777 775.194,599.777L771.982,599.777C771.713,599.777 771.494,599.996 771.494,600.265L771.494,601.802C771.494,602.071 771.713,602.29 771.982,602.29L775.194,602.29C775.464,602.29 775.682,602.071 775.682,601.802L775.682,600.265Z" style="fill:rgb(42,72,114);"/>
    </g>
    <g transform="matrix(-1,7.65714e-16,-7.65714e-16,-1,1323.83,1038.2)">
        <path d="M767.305,600.265C767.305,599.996 767.087,599.777 766.817,599.777L763.605,599.777C763.336,599.777 763.117,599.996 763.117,600.265L763.117,601.802C763.117,602.071 763.336,602.29 763.605,602.29L766.817,602.29C767.087,602.29 767.305,602.071 767.305,601.802L767.305,600.265Z" style="fill:rgb(42,72,114);"/>
    </g>
    <g transform="matrix(-1,7.65714e-16,-7.65714e-16,-1,1307.08,1038.2)">
        <path d="M758.928,600.265C758.928,599.996 758.71,599.777 758.44,599.777L755.228,599.777C754.959,599.777 754.74,599.996 754.74,600.265L754.74,601.802C754.74,602.071 754.959,602.29 755.228,602.29L758.44,602.29C758.71,602.29 758.928,602.071 758.928,601.802L758.928,600.265Z" style="fill:rgb(42,72,114);"/>
    </g>
    <g transform="matrix(-1,7.65714e-16,-7.65714e-16,-1,1290.32,1038.2)">
        <path d="M750.551,600.265C750.551,599.996 750.333,599.777 750.063,599.777L746.851,599.777C746.582,599.777 746.363,599.996 746.363,600.265L746.363,601.802C746.363,602.071 746.582,602.29 746.851,602.29L750.063,602.29C750.333,602.29 750.551,602.071 750.551,601.802L750.551,600.265Z" style="fill:rgb(42,72,114);"/>
    </g>
    <g transform="matrix(-1,7.65714e-16,-7.65714e-16,-1,1273.57,1038.2)">
        <path d="M742.174,600.265C742.174,599.996 741.956,599.777 741.686,599.777L738.474,599.777C738.205,599.777 737.986,599.996 737.986,600.265L737.986,601.802C737.986,602.071 738.205,602.29 738.474,602.29L741.686,602.29C741.956,602.29 742.174,602.071 742.174,601.802L742.174,600.265Z" style="fill:rgb(42,72,114);"/>
    </g>
    <g transform="matrix(-1,7.65714e-16,-7.65714e-16,-1,1256.82,1038.2)">
        <path d="M733.797,600.265C733.797,599.996 733.579,599.777 733.309,599.777L730.097,599.777C729.828,599.777 729.609,599.996 729.609,600.265L729.609,601.802C729.609,602.071 729.828,602.29 730.097,602.29L733.309,602.29C733.579,602.29 733.797,602.071 733.797,601.802L733.797,600.265Z" style="fill:rgb(42,72,114);"/>
    </g>
    <g transform="matrix(-1,7.65714e-16,-7.65714e-16,-1,1240.06,1038.2)">
        <path d="M725.42,600.265C725.42,599.996 725.202,599.777 724.932,599.777L721.72,599.777C721.451,599.777 721.232,599.996 721.232,600.265L721.232,601.802C721.232,602.071 721.451,602.29 721.72,602.29L724.932,602.29C725.202,602.29 725.42,602.071 725.42,601.802L725.42,600.265Z" style="fill:rgb(42,72,114);"/>
    </g>
    <g transform="matrix(-1,7.65714e-16,-7.65714e-16,-1,1223.31,1038.2)">
        <path d="M717.044,600.265C717.044,599.996 716.825,599.777 716.555,599.777L713.343,599.777C713.074,599.777 712.855,599.996 712.855,600.265L712.855,601.802C712.855,602.071 713.074,602.29 713.343,602.29L716.555,602.29C716.825,602.29 717.044,602.071 717.044,601.802L717.044,600.265Z" style="fill:rgb(42,72,114);"/>
    </g>
    <g transform="matrix(-1,7.65714e-16,-7.65714e-16,-1,1206.55,1038.2)">
        <path d="M708.667,600.265C708.667,599.996 708.448,599.777 708.178,599.777L704.966,599.777C704.697,599.777 704.478,599.996 704.478,600.265L704.478,601.802C704.478,602.071 704.697,602.29 704.966,602.29L708.178,602.29C708.448,602.29 708.667,602.071 708.667,601.802L708.667,600.265Z" style="fill:rgb(42,72,114);"/>
    </g>
    <g transform="matrix(-1,7.65714e-16,-7.65714e-16,-1,1348.13,1048.25)">
        <path d="M794.112,605.291C794.112,605.022 793.893,604.803 793.624,604.803L761.092,604.803C760.823,604.803 760.604,605.022 760.604,605.291L760.604,606.828C760.604,607.097 760.823,607.316 761.092,607.316L793.624,607.316C793.893,607.316 794.112,607.097 794.112,606.828L794.112,605.291Z" style="fill:rgb(42,72,114);"/>
    </g>
    <path d="M521.597,360.298C521.597,359.437 520.897,358.737 520.036,358.737L517.192,358.737C516.331,358.737 515.631,359.437 515.631,360.298C515.631,361.16 516.331,361.859 517.192,361.859L520.036,361.859C520.897,361.859 521.597,361.16 521.597,360.298Z" style="fill:white;"/>
    <path d="M554.12,360.298C554.12,359.437 553.42,358.737 552.559,358.737L549.715,358.737C548.854,358.737 548.154,359.437 548.154,360.298C548.154,361.16 548.854,361.859 549.715,361.859L552.559,361.859C553.42,361.859 554.12,361.16 554.12,360.298Z" style="fill:white;"/>
    <path d="M563.335,360.298C563.335,359.437 562.635,358.737 561.774,358.737L558.93,358.737C558.068,358.737 557.369,359.437 557.369,360.298C557.369,361.16 558.068,361.859 558.93,361.859L561.774,361.859C562.635,361.859 563.335,361.16 563.335,360.298Z" style="fill:white;"/>
    <path d="M545.274,360.038C545.274,359.176 544.574,358.477 543.712,358.477L526.038,358.477C525.177,358.477 524.477,359.176 524.477,360.038C524.477,360.899 525.177,361.599 526.038,361.599L543.712,361.599C544.574,361.599 545.274,360.899 545.274,360.038Z" style="fill:white;"/>
    <path d="M588.638,360.038C588.638,359.176 587.938,358.477 587.076,358.477L569.403,358.477C568.541,358.477 567.841,359.176 567.841,360.038C567.841,360.899 568.541,361.599 569.403,361.599L587.076,361.599C587.938,361.599 588.638,360.899 588.638,360.038Z" style="fill:white;"/>
    <path d="M530.27,367.345C530.27,366.483 529.57,365.784 528.709,365.784L525.865,365.784C525.003,365.784 524.304,366.483 524.304,367.345C524.304,368.206 525.003,368.906 525.865,368.906L528.709,368.906C529.57,368.906 530.27,368.206 530.27,367.345Z" style="fill:white;"/>
    <path d="M562.793,367.345C562.793,366.483 562.093,365.784 561.232,365.784L558.388,365.784C557.526,365.784 556.827,366.483 556.827,367.345C556.827,368.206 557.526,368.906 558.388,368.906L561.232,368.906C562.093,368.906 562.793,368.206 562.793,367.345Z" style="fill:white;"/>
    <path d="M572.008,367.345C572.008,366.483 571.308,365.784 570.446,365.784L567.603,365.784C566.741,365.784 566.042,366.483 566.042,367.345C566.042,368.206 566.741,368.906 567.603,368.906L570.446,368.906C571.308,368.906 572.008,368.206 572.008,367.345Z" style="fill:white;"/>
    <path d="M553.946,367.085C553.946,366.223 553.247,365.523 552.385,365.523L534.711,365.523C533.85,365.523 533.15,366.223 533.15,367.085C533.15,367.946 533.85,368.646 534.711,368.646L552.385,368.646C553.247,368.646 553.946,367.946 553.946,367.085Z" style="fill:white;"/>
    <path d="M597.31,367.085C597.31,366.223 596.611,365.523 595.749,365.523L578.075,365.523C577.214,365.523 576.514,366.223 576.514,367.085C576.514,367.946 577.214,368.646 578.075,368.646L595.749,368.646C596.611,368.646 597.31,367.946 597.31,367.085Z" style="fill:white;"/>
    <path d="M538.943,374.391C538.943,373.53 538.243,372.83 537.381,372.83L534.538,372.83C533.676,372.83 532.977,373.53 532.977,374.391C532.977,375.253 533.676,375.953 534.538,375.953L537.381,375.953C538.243,375.953 538.943,375.253 538.943,374.391Z" style="fill:white;"/>
    <path d="M571.466,374.391C571.466,373.53 570.766,372.83 569.904,372.83L567.061,372.83C566.199,372.83 565.5,373.53 565.5,374.391C565.5,375.253 566.199,375.953 567.061,375.953L569.904,375.953C570.766,375.953 571.466,375.253 571.466,374.391Z" style="fill:white;"/>
    <path d="M580.68,374.391C580.68,373.53 579.981,372.83 579.119,372.83L576.276,372.83C575.414,372.83 574.715,373.53 574.715,374.391C574.715,375.253 575.414,375.953 576.276,375.953L579.119,375.953C579.981,375.953 580.68,375.253 580.68,374.391Z" style="fill:white;"/>
    <path d="M562.619,374.131C562.619,373.27 561.92,372.57 561.058,372.57L543.384,372.57C542.523,372.57 541.823,373.27 541.823,374.131C541.823,374.993 542.523,375.692 543.384,375.692L561.058,375.692C561.92,375.692 562.619,374.993 562.619,374.131Z" style="fill:white;"/>
    <path d="M605.983,374.131C605.983,373.27 605.284,372.57 604.422,372.57L586.748,372.57C585.887,372.57 585.187,373.27 585.187,374.131C585.187,374.993 585.887,375.692 586.748,375.692L604.422,375.692C605.284,375.692 605.983,374.993 605.983,374.131Z" style="fill:white;"/>
    <path d="M547.615,381.438C547.615,380.577 546.916,379.877 546.054,379.877L543.211,379.877C542.349,379.877 541.649,380.577 541.649,381.438C541.649,382.3 542.349,382.999 543.211,382.999L546.054,382.999C546.916,382.999 547.615,382.3 547.615,381.438Z" style="fill:white;"/>
    <path d="M580.138,381.438C580.138,380.577 579.439,379.877 578.577,379.877L575.734,379.877C574.872,379.877 574.172,380.577 574.172,381.438C574.172,382.3 574.872,382.999 575.734,382.999L578.577,382.999C579.439,382.999 580.138,382.3 580.138,381.438Z" style="fill:white;"/>
    <path d="M589.353,381.438C589.353,380.577 588.654,379.877 587.792,379.877L584.948,379.877C584.087,379.877 583.387,380.577 583.387,381.438C583.387,382.3 584.087,382.999 584.948,382.999L587.792,382.999C588.654,382.999 589.353,382.3 589.353,381.438Z" style="fill:white;"/>
    <path d="M571.292,381.178C571.292,380.316 570.592,379.617 569.731,379.617L552.057,379.617C551.195,379.617 550.496,380.316 550.496,381.178C550.496,382.039 551.195,382.739 552.057,382.739L569.731,382.739C570.592,382.739 571.292,382.039 571.292,381.178Z" style="fill:white;"/>
    <path d="M554.12,409.459C554.12,408.597 553.42,407.898 552.559,407.898L549.715,407.898C548.854,407.898 548.154,408.597 548.154,409.459C548.154,410.32 548.854,411.02 549.715,411.02L552.559,411.02C553.42,411.02 554.12,410.32 554.12,409.459Z" style="fill:white;"/>
    <path d="M563.335,409.459C563.335,408.597 562.635,407.898 561.774,407.898L558.93,407.898C558.068,407.898 557.369,408.597 557.369,409.459C557.369,410.32 558.068,411.02 558.93,411.02L561.774,411.02C562.635,411.02 563.335,410.32 563.335,409.459Z" style="fill:white;"/>
    <path d="M588.638,409.719C588.638,408.857 587.938,408.158 587.076,408.158L569.403,408.158C568.541,408.158 567.841,408.857 567.841,409.719C567.841,410.58 568.541,411.28 569.403,411.28L587.076,411.28C587.938,411.28 588.638,410.58 588.638,409.719Z" style="fill:white;"/>
    <path d="M521.597,409.459C521.597,408.597 520.897,407.898 520.036,407.898L517.192,407.898C516.331,407.898 515.631,408.597 515.631,409.459C515.631,410.32 516.331,411.02 517.192,411.02L520.036,411.02C520.897,411.02 521.597,410.32 521.597,409.459Z" style="fill:white;"/>
    <path d="M545.274,409.719C545.274,408.857 544.574,408.158 543.712,408.158L526.038,408.158C525.177,408.158 524.477,408.857 524.477,409.719C524.477,410.58 525.177,411.28 526.038,411.28L543.712,411.28C544.574,411.28 545.274,410.58 545.274,409.719Z" style="fill:white;"/>
    <path d="M530.27,402.412C530.27,401.55 529.57,400.851 528.709,400.851L525.865,400.851C525.003,400.851 524.304,401.55 524.304,402.412C524.304,403.274 525.003,403.973 525.865,403.973L528.709,403.973C529.57,403.973 530.27,403.274 530.27,402.412Z" style="fill:white;"/>
    <path d="M562.793,402.412C562.793,401.55 562.093,400.851 561.232,400.851L558.388,400.851C557.526,400.851 556.827,401.55 556.827,402.412C556.827,403.274 557.526,403.973 558.388,403.973L561.232,403.973C562.093,403.973 562.793,403.274 562.793,402.412Z" style="fill:white;"/>
    <path d="M572.008,402.412C572.008,401.55 571.308,400.851 570.446,400.851L567.603,400.851C566.741,400.851 566.042,401.55 566.042,402.412C566.042,403.274 566.741,403.973 567.603,403.973L570.446,403.973C571.308,403.973 572.008,403.274 572.008,402.412Z" style="fill:white;"/>
    <path d="M553.946,402.672C553.946,401.811 553.247,401.111 552.385,401.111L534.711,401.111C533.85,401.111 533.15,401.811 533.15,402.672C533.15,403.534 533.85,404.233 534.711,404.233L552.385,404.233C553.247,404.233 553.946,403.534 553.946,402.672Z" style="fill:white;"/>
    <path d="M538.943,395.365C538.943,394.504 538.243,393.804 537.381,393.804L534.538,393.804C533.676,393.804 532.977,394.504 532.977,395.365C532.977,396.227 533.676,396.926 534.538,396.926L537.381,396.926C538.243,396.926 538.943,396.227 538.943,395.365Z" style="fill:white;"/>
    <path d="M571.466,395.365C571.466,394.504 570.766,393.804 569.904,393.804L567.061,393.804C566.199,393.804 565.5,394.504 565.5,395.365C565.5,396.227 566.199,396.926 567.061,396.926L569.904,396.926C570.766,396.926 571.466,396.227 571.466,395.365Z" style="fill:white;"/>
    <path d="M580.68,395.365C580.68,394.504 579.981,393.804 579.119,393.804L576.276,393.804C575.414,393.804 574.715,394.504 574.715,395.365C574.715,396.227 575.414,396.926 576.276,396.926L579.119,396.926C579.981,396.926 580.68,396.227 580.68,395.365Z" style="fill:white;"/>
    <path d="M562.619,395.626C562.619,394.764 561.92,394.064 561.058,394.064L543.384,394.064C542.523,394.064 541.823,394.764 541.823,395.626C541.823,396.487 542.523,397.187 543.384,397.187L561.058,397.187C561.92,397.187 562.619,396.487 562.619,395.626Z" style="fill:white;"/>
    <path d="M547.615,388.319C547.615,387.457 546.916,386.758 546.054,386.758L543.211,386.758C542.349,386.758 541.649,387.457 541.649,388.319C541.649,389.18 542.349,389.88 543.211,389.88L546.054,389.88C546.916,389.88 547.615,389.18 547.615,388.319Z" style="fill:white;"/>
    <path d="M580.138,388.319C580.138,387.457 579.439,386.758 578.577,386.758L575.734,386.758C574.872,386.758 574.172,387.457 574.172,388.319C574.172,389.18 574.872,389.88 575.734,389.88L578.577,389.88C579.439,389.88 580.138,389.18 580.138,388.319Z" style="fill:white;"/>
    <path d="M589.353,388.319C589.353,387.457 588.654,386.758 587.792,386.758L584.948,386.758C584.087,386.758 583.387,387.457 583.387,388.319C583.387,389.18 584.087,389.88 584.948,389.88L587.792,389.88C588.654,389.88 589.353,389.18 589.353,388.319Z" style="fill:white;"/>
    <path d="M571.292,388.579C571.292,387.717 570.592,387.018 569.731,387.018L552.057,387.018C551.195,387.018 550.496,387.717 550.496,388.579C550.496,389.44 551.195,390.14 552.057,390.14L569.731,390.14C570.592,390.14 571.292,389.44 571.292,388.579Z" style="fill:white;"/>
    <g transform="matrix(1,0,0,1,-206.59,-163.871)">
        <path d="M711.507,654.353L698.158,633.251L740.06,599.848L757.355,580.687C760.986,576.664 766.159,574.365 771.579,574.365C779.824,574.365 787.187,579.686 789.773,587.515C792.994,597.264 787.837,607.957 778.203,611.506L750.854,621.581L711.507,654.353Z" style="fill:rgb(255,182,182);fill-rule:nonzero;"/>
    </g>
    <g transform="matrix(1,0,0,1,-206.59,-163.871)">
        <path d="M398.28,501.352L398.28,603.912L470.13,603.912L470.13,501.352C470.132,499.842 469.143,498.498 467.7,498.052C467.368,497.942 467.02,497.888 466.67,497.892L401.75,497.892C401.748,497.892 401.746,497.892 401.743,497.892C399.845,497.892 398.282,499.453 398.28,501.352ZM426.32,536.592C426.359,532.411 429.809,528.993 433.99,528.993C438.171,528.993 441.621,532.411 441.66,536.592L441.66,548.492C441.639,552.685 438.183,556.123 433.99,556.123C429.797,556.123 426.341,552.685 426.32,548.492L426.32,536.592Z" style="fill:rgb(21,44,75);fill-rule:nonzero;"/>
    </g>
    <g transform="matrix(1,0,0,1,-206.59,-163.871)">
        <path d="M398.06,600.632L398.06,610.522C398.063,611.581 398.931,612.453 399.99,612.462L468.42,612.462C469.481,612.457 470.35,611.583 470.35,610.522L470.35,600.632L398.06,600.632Z" style="fill:rgb(42,72,114);fill-rule:nonzero;"/>
    </g>
    <g transform="matrix(1,0,0,1,-206.59,-163.871)">
        <path d="M285.25,346.832L285.25,534.092C285.254,539.028 289.314,543.088 294.25,543.092L571.75,543.092C576.686,543.088 580.746,539.028 580.75,534.092L580.75,346.832C580.738,341.901 576.681,337.848 571.75,337.842L294.25,337.842C289.319,337.848 285.262,341.901 285.25,346.832Z" style="fill:rgb(42,72,114);fill-rule:nonzero;"/>
    </g>
    <g transform="matrix(1,0,0,1,-206.59,-163.871)">
        <path d="M291.76,349.162L291.76,531.782C291.765,534.419 293.933,536.587 296.57,536.592L569.44,536.592C572.077,536.587 574.245,534.419 574.25,531.782L574.25,349.162C574.25,346.522 572.08,344.348 569.44,344.342L296.57,344.342C293.93,344.348 291.76,346.522 291.76,349.162Z" style="fill:white;fill-rule:nonzero;"/>
    </g>
    <g transform="matrix(1,0,0,1,-206.59,-163.871)">
        <path d="M342.4,611.792C342.962,612.497 343.818,612.906 344.72,612.902L507.06,612.902C508.697,612.9 510.044,611.552 510.044,609.915C510.044,609.709 510.022,609.503 509.98,609.302L507.46,597.332C507.248,596.341 506.547,595.523 505.6,595.162C505.262,595.029 504.903,594.962 504.54,594.962L347.23,594.962C346.867,594.962 346.508,595.029 346.17,595.162C345.223,595.523 344.522,596.341 344.31,597.332L341.79,609.302C341.609,610.181 341.833,611.096 342.4,611.792Z" style="fill:rgb(21,44,75);fill-rule:nonzero;"/>
    </g>
    <g transform="matrix(1,0,0,1,-206.59,-163.871)">
        <path d="M560.585,369.499L305.261,369.499C304.713,369.486 304.268,369.032 304.268,368.483C304.268,367.935 304.713,367.48 305.261,367.468L560.585,367.468C561.133,367.48 561.578,367.935 561.578,368.483C561.578,369.032 561.133,369.486 560.585,369.499Z" style="fill:rgb(42,72,114);fill-rule:nonzero;"/>
    </g>
    <ellipse cx="116.051" cy="192.33" rx="5.95" ry="6.083" style="fill:rgb(42,72,114);"/>
    <ellipse cx="136.607" cy="192.33" rx="5.95" ry="6.083" style="fill:rgb(42,72,114);"/>
    <ellipse cx="157.163" cy="192.33" rx="5.95" ry="6.083" style="fill:rgb(42,72,114);"/>
    <g transform="matrix(1,0,0,1,-206.59,-163.871)">
        <path d="M548.206,351.622L533.606,351.622C533.01,351.636 532.527,352.13 532.527,352.727C532.527,353.324 533.01,353.818 533.606,353.832L548.206,353.832C548.807,353.824 549.296,353.327 549.296,352.727C549.296,352.127 548.807,351.63 548.206,351.622Z" style="fill:rgb(42,72,114);fill-rule:nonzero;"/>
    </g>
    <g transform="matrix(1,0,0,1,-206.59,-163.871)">
        <path d="M548.206,355.772L533.606,355.772C533.009,355.785 532.526,356.28 532.526,356.877C532.526,357.474 533.009,357.969 533.606,357.982L548.206,357.982C548.808,357.975 549.298,357.478 549.298,356.877C549.298,356.276 548.808,355.779 548.206,355.772Z" style="fill:rgb(42,72,114);fill-rule:nonzero;"/>
    </g>
    <g transform="matrix(1,0,0,1,-206.59,-163.871)">
        <path d="M548.206,359.922L533.606,359.922C533.01,359.936 532.527,360.43 532.527,361.027C532.527,361.624 533.01,362.118 533.606,362.132L548.206,362.132C548.807,362.123 549.296,361.627 549.296,361.027C549.296,360.427 548.807,359.93 548.206,359.922Z" style="fill:rgb(42,72,114);fill-rule:nonzero;"/>
    </g>
    <g transform="matrix(1,0,0,1,-206.59,-163.871)">
        <path d="M900.186,604.972C901.087,607.597 903.594,609.353 906.369,609.303L933.002,609.33C935.8,609.276 938.103,606.663 938.842,603.965L941.599,577.48C942.929,578.082 947.514,576.067 948.857,575.573C949.113,575.48 949.368,575.372 949.612,575.23C951.925,573.883 953.542,571.375 954.917,567.228C956.426,562.672 958.587,557.376 958.587,554.792C958.587,549.492 951.886,545.429 946.586,545.429C946.505,545.429 946.424,545.43 946.343,545.432C945.76,545.43 945.178,545.49 944.607,545.612C943.353,544.255 941.581,543.491 939.733,543.509L898.983,544.561C898.645,544.574 898.308,544.616 897.978,544.686C894.976,545.246 892.779,547.89 892.779,550.943C892.779,551.625 892.889,552.303 893.104,552.951L900.186,604.972ZM942.367,574.758L945.035,551.461C945.338,550.358 945.769,548.537 946.047,548.228C946.172,548.158 946.291,548.167 946.42,548.166C946.468,548.165 946.516,548.165 946.563,548.165C950.354,548.165 955.65,551.284 956.103,555.166C956.333,557.13 953.782,562.292 952.466,566.646C951.304,570.488 949.628,572.274 947.883,573.183C946.834,573.729 943.399,575.337 942.367,574.758Z" style="fill:rgb(21,44,75);fill-rule:nonzero;"/>
    </g>
    <g transform="matrix(1,0,0,1,-206.59,-163.871)">
        <path d="M897.978,544.686C898.846,549.65 908.607,553.14 920.343,552.534C931.136,552.036 939.961,548.247 941.578,543.755C940.979,543.578 940.357,543.495 939.733,543.509L898.983,544.561C898.645,544.574 898.308,544.616 897.978,544.686Z" style="fill:rgb(42,72,114);fill-rule:nonzero;"/>
    </g>
    <g transform="matrix(1.30581,0,0,1.30581,-486.138,-340.32)">
        <path d="M922.494,582.944C922.548,582.931 922.599,582.908 922.645,582.878L928.398,579.112C928.54,579.02 928.625,578.862 928.625,578.694C928.625,578.525 928.54,578.368 928.399,578.276L922.419,574.359C922.337,574.305 922.241,574.276 922.143,574.276C921.869,574.276 921.643,574.502 921.643,574.776C921.643,574.945 921.729,575.103 921.871,575.195L927.212,578.693L922.098,582.041C921.957,582.133 921.872,582.291 921.872,582.46C921.872,582.734 922.097,582.959 922.372,582.959C922.413,582.959 922.454,582.954 922.494,582.944L922.494,582.944Z" style="fill:rgb(0,191,166);fill-rule:nonzero;"/>
    </g>
    <g transform="matrix(1.30581,0,0,1.30581,-485.859,-340.831)">
        <path d="M913.408,583.363C913.629,583.307 913.785,583.107 913.785,582.878C913.785,582.7 913.689,582.534 913.534,582.445L908.231,579.404L913.356,575.597C913.483,575.503 913.558,575.354 913.558,575.196C913.558,574.922 913.332,574.697 913.058,574.697C912.951,574.697 912.846,574.731 912.76,574.795L907.022,579.058C906.895,579.152 906.82,579.301 906.82,579.459C906.82,579.638 906.916,579.804 907.071,579.893L913.036,583.312C913.149,583.377 913.282,583.395 913.408,583.363Z" style="fill:rgb(0,191,166);fill-rule:nonzero;"/>
    </g>
    <g transform="matrix(0.85446,0,0,0.809534,-71.9511,-53.4157)">
        <path d="M921.922,586.244C921.971,586.232 922.462,585.978 922.504,585.951C922.653,585.861 922.745,585.699 922.745,585.524C922.745,585.432 922.719,585.343 922.672,585.264L914.544,571.956C914.453,571.807 914.291,571.717 914.117,571.717C913.843,571.717 913.144,572.077 913.144,572.352C913.144,572.443 913.169,572.533 913.217,572.611L921.372,586.02C921.486,586.206 921.71,586.298 921.922,586.244Z" style="fill:rgb(0,191,166);fill-rule:nonzero;"/>
    </g>
    <path d="M260.104,264.091C260.104,262.29 258.641,260.827 256.84,260.827L212.649,260.827C210.847,260.827 209.385,262.29 209.385,264.091L209.385,268.409C209.385,270.21 210.847,271.673 212.649,271.673L256.84,271.673C258.641,271.673 260.104,270.21 260.104,268.409L260.104,264.091Z" style="fill:rgb(0,191,166);"/>
    <path d="M285.862,285.783C285.862,283.981 284.4,282.519 282.598,282.519L186.89,282.519C185.089,282.519 183.626,283.981 183.626,285.783L183.626,290.1C183.626,291.902 185.089,293.364 186.89,293.364L282.598,293.364C284.4,293.364 285.862,291.902 285.862,290.1L285.862,285.783Z" style="fill:rgb(230,230,230);"/>
    <path d="M285.862,307.474C285.862,305.673 284.4,304.21 282.598,304.21L186.89,304.21C185.089,304.21 183.626,305.673 183.626,307.474L183.626,311.791C183.626,313.593 185.089,315.056 186.89,315.056L282.598,315.056C284.4,315.056 285.862,313.593 285.862,311.791L285.862,307.474Z" style="fill:rgb(230,230,230);"/>
    <g transform="matrix(1,0,0,1,-206.59,-163.871)">
        <path d="M497.301,540.717L497.518,541.401L497.529,541.424L504.055,561.262L511.561,584.123L525.684,627.085L525.82,633.758L525.82,633.781L526.87,687.465L523.961,694.743L527.235,706.676C527.235,706.676 525.729,688.639 517.653,698.997C513.078,704.883 507.728,710.907 503.336,716.553C509.736,719.143 516.238,721.485 522.843,723.58C524.269,724.037 525.706,724.47 527.144,724.904C527.452,724.995 527.76,725.086 528.068,725.178C549.962,731.652 572.598,735.291 595.419,736.003C596.605,736.038 597.769,736.06 598.898,736.083C599.297,736.095 599.685,736.106 600.073,736.106C601.351,736.118 602.617,736.129 603.894,736.129C606.473,736.129 609.039,736.091 611.595,736.015C630.508,735.482 649.311,732.939 667.686,728.429C667.561,720.843 667.218,711.979 666.728,702.511C666.5,697.868 661.378,692.837 661.07,687.977C660.853,684.327 665.45,680.893 665.211,677.185C663.659,654.359 661.72,663.121 660.283,646.957C660.134,645.371 659.997,643.854 659.872,642.405C658.948,632.024 658.309,625.533 658.309,625.533L664.446,586.85L674.086,526.115L673.344,524.895L672.512,524.484L621.668,499.319L618.907,492.246C617.265,488.086 613.238,485.327 608.766,485.299L575.273,485.162C571.749,485.146 568.427,486.835 566.363,489.691L557.294,502.25L497.301,540.717Z" style="fill:rgb(50,120,171);fill-rule:nonzero;"/>
    </g>
    <g transform="matrix(1,0,0,1,-206.59,-163.871)">
        <path d="M533.407,617.525L525.82,633.758L520.641,644.846L511.732,691.492L507.272,696.226L503.45,679.467L463.452,688.348C462.14,681.058 463.101,688.595 462.291,680.598C462.519,680.37 462.759,680.142 462.998,679.913C463.637,679.32 464.173,678.761 464.162,678.225C463.706,650.641 465.075,603.699 476.505,575.259C478.295,570.616 480.656,566.213 483.532,562.152C483.76,561.844 483.977,561.536 484.194,561.228C489.464,553.847 492.795,546.581 497.518,541.413L497.518,541.401C497.547,541.378 497.574,541.351 497.598,541.322C497.615,541.313 497.63,541.301 497.643,541.287L530.087,524.085L531.479,563.19L532.471,591.299L533.407,617.525Z" style="fill:rgb(50,120,171);fill-rule:nonzero;"/>
    </g>
    <g transform="matrix(1,0,0,1,-206.59,-163.871)">
        <path d="M650.391,622.135L659.867,642.41L663.175,649.471L672.082,696.113L676.527,700.836L680.358,684.08L682.158,683.711L714.616,676.989L724.077,707.035C728.456,699.738 727.086,690.283 720.815,684.53C720.169,683.945 719.631,683.376 719.646,682.837C720.185,650.394 718.2,591.154 700.279,566.772C694.587,559.034 691.172,551.327 686.203,545.943C686.188,545.927 686.188,545.912 686.173,545.912L674.081,526.114L673.343,524.899L672.512,524.483L650.391,622.135Z" style="fill:rgb(50,120,171);fill-rule:nonzero;"/>
    </g>
    <circle id="a657ec4b-47ce-4d2a-9c58-81a811696ca9" cx="386.397" cy="267.201" r="44.558" style="fill:rgb(255,182,182);"/>
    <g transform="matrix(1,0,0,1,-206.59,-163.871)">
        <path d="M653.212,399.948C652.515,399.203 651.543,398.773 650.522,398.758L651.192,396.898C651.34,396.503 651.415,396.085 651.415,395.664C651.415,393.729 649.823,392.137 647.887,392.137C647.668,392.137 647.448,392.157 647.232,392.198L644.792,392.668L645.022,391.038C645.047,390.87 645.059,390.7 645.059,390.53C645.059,388.591 643.464,386.996 641.525,386.996C641.104,386.996 640.687,387.071 640.292,387.218C639.234,387.635 638.041,387.55 637.052,386.988C636.06,386.443 635.357,385.488 635.132,384.378L634.282,380.278L634.192,380.058C630.052,373.158 622.092,368.138 612.352,366.298C603.682,364.648 594.792,365.488 586.222,366.278C582.822,366.598 578.982,366.958 575.782,368.918C573.062,370.598 570.762,373.958 571.232,377.348C562.782,374.758 553.722,379.928 549.232,386.448C543.912,394.208 543.042,403.928 542.902,411.528C542.522,429.508 546.232,444.218 553.902,455.258C554.462,456.058 554.602,457.728 555.712,458.288L555.482,457.918C556.722,458.538 557.982,459.538 557.512,460.608C556.162,463.688 565.132,470.498 571.452,472.748C582.982,476.858 598.312,476.508 609.092,475.028L609.472,472.478C613.362,471.948 616.102,470.938 616.872,469.358C618.232,468.198 619.392,467.158 620.402,466.198L620.412,466.188C620.432,466.168 620.472,466.138 620.492,466.118C625.362,461.448 626.492,458.788 627.002,454.738C627.492,450.768 626.622,446.738 625.732,443.108C644.472,446.008 618.352,423.148 635.812,418.728C636.013,418.666 636.216,418.616 636.422,418.578C636.932,418.458 637.442,418.338 637.932,418.198C640.294,417.557 642.556,416.591 644.652,415.328C649.532,412.358 651.142,408.418 653.662,403.978C654.407,402.684 654.224,401.046 653.212,399.948Z" style="fill:rgb(21,44,75);fill-rule:nonzero;"/>
    </g>
    <g transform="matrix(1,0,0,1,-206.59,-163.871)">
        <path d="M750.582,625.308C750.572,627.058 750.552,629.508 750.472,632.538C750.462,632.958 750.452,633.388 750.442,633.828C750.312,639.398 750.182,644.068 749.972,649.258C749.962,649.618 749.952,649.968 749.932,650.328C749.652,657.568 749.212,665.998 748.452,679.348C747.042,704.008 744.582,682.738 742.112,691.388C741.992,691.818 741.862,692.328 741.742,692.928C741.368,695.105 740.737,697.23 739.862,699.258C738.552,700.038 737.202,700.788 735.872,701.538C732.082,703.648 728.232,705.678 724.352,707.608C722.172,708.688 719.982,709.748 717.782,710.768C717.432,710.928 717.092,711.088 716.752,711.238C705.486,716.449 693.876,720.879 682.002,724.498C679.682,725.198 677.372,725.878 675.032,726.508C672.592,727.188 670.152,727.828 667.682,728.428C649.308,732.939 630.505,735.483 611.592,736.018C609.042,736.098 606.472,736.128 603.892,736.128C602.612,736.128 601.352,736.118 600.072,736.108C599.682,736.108 599.292,736.098 598.902,736.088C597.772,736.058 596.602,736.038 595.422,736.008C572.601,735.296 549.966,731.656 528.072,725.178L527.142,724.908C525.702,724.468 524.272,724.038 522.842,723.578C516.242,721.488 509.739,719.148 503.332,716.558C498.442,714.588 493.609,712.475 488.832,710.218C488.789,710.206 488.748,710.186 488.712,710.158C487.712,709.698 486.702,709.218 485.702,708.728C485.572,708.658 485.432,708.588 485.292,708.518C481.562,706.698 477.872,704.791 474.222,702.798C471.152,695.748 466.832,694.398 464.152,688.198C463.372,686.356 462.809,684.43 462.472,682.458C462.472,682.438 462.462,682.418 462.462,682.388C462.742,686.108 461.272,675.788 462.452,682.348C462.442,682.228 462.432,682.098 462.422,681.948C462.392,681.588 462.352,681.148 462.292,680.598C458.862,647.108 459.082,608.808 457.592,577.248C457.492,575.208 457.389,573.255 457.282,571.388C457.252,570.768 457.212,570.158 457.172,569.558C457.242,569.378 457.322,569.188 457.412,569.008C457.431,568.956 457.455,568.906 457.482,568.858C457.512,568.796 457.545,568.736 457.582,568.678C457.602,568.648 457.632,568.608 457.652,568.578C457.667,568.544 457.684,568.51 457.702,568.478C457.792,568.338 457.892,568.188 458.002,568.048C458.052,567.988 458.092,567.938 458.142,567.888C458.177,567.837 458.217,567.79 458.262,567.748C458.293,567.7 458.33,567.656 458.372,567.618C458.412,567.578 458.452,567.528 458.502,567.478C458.524,567.446 458.551,567.419 458.582,567.398C458.661,567.307 458.748,567.223 458.842,567.148C459.199,566.82 459.58,566.519 459.982,566.248C460.122,566.158 460.272,566.068 460.412,565.968C461.42,565.365 462.481,564.856 463.582,564.448C463.962,564.308 464.342,564.178 464.752,564.038C464.902,563.998 465.042,563.948 465.192,563.898C465.412,563.828 465.632,563.758 465.862,563.708C467.002,563.368 468.232,563.078 469.562,562.808C469.722,562.778 469.892,562.748 470.062,562.708C470.302,562.658 470.552,562.618 470.802,562.578C471.142,562.518 471.492,562.458 471.842,562.398C474.812,561.928 478.182,561.578 481.902,561.348C482.252,561.328 482.602,561.308 482.952,561.288C483.362,561.268 483.772,561.248 484.192,561.228C484.542,561.208 484.902,561.198 485.262,561.188C485.612,561.168 485.972,561.158 486.342,561.148C487.352,561.118 488.392,561.088 489.452,561.068C492.472,561.008 495.652,561.028 498.992,561.098C500.542,561.138 502.122,561.178 503.742,561.248C503.852,561.248 503.952,561.258 504.052,561.258C505.462,561.308 506.882,561.368 508.342,561.448C509.362,561.498 510.392,561.548 511.422,561.608C512.392,561.668 513.372,561.728 514.362,561.798C515.132,561.838 515.902,561.898 516.682,561.948C517.342,561.998 518.002,562.048 518.662,562.088L519.562,562.148C520.052,562.188 520.542,562.218 521.042,562.268C522.142,562.358 523.242,562.448 524.362,562.538C525.472,562.638 526.602,562.738 527.732,562.838C528.862,562.938 530.002,563.048 531.142,563.158C531.262,563.168 531.372,563.178 531.482,563.188C532.522,563.298 533.562,563.398 534.612,563.508C534.852,563.528 535.102,563.548 535.342,563.578C536.343,563.679 537.364,563.796 538.374,563.904C538.684,563.937 538.993,563.969 539.304,564.003C540.095,564.09 540.875,564.164 541.672,564.258C542.722,564.378 543.792,564.488 544.832,564.628C545.642,564.718 546.452,564.808 547.262,564.908C548.532,565.058 549.822,565.218 551.112,565.388C551.602,565.448 552.092,565.508 552.582,565.578C556.262,566.038 559.982,566.548 563.762,567.078C569.492,567.888 575.312,568.768 581.172,569.718C587.042,570.668 592.946,571.671 598.882,572.728C600.382,572.998 601.882,573.268 603.392,573.548C604.072,573.678 604.752,573.808 605.432,573.938C606.592,574.148 607.752,574.368 608.912,574.588C610.072,574.808 611.232,575.028 612.392,575.258C613.772,575.528 615.162,575.798 616.542,576.068C625.632,577.868 634.672,579.788 643.492,581.798C644.942,582.128 646.392,582.468 647.832,582.798C650.712,583.468 653.566,584.148 656.392,584.838C657.172,585.018 657.942,585.208 658.712,585.398C660.632,585.878 662.552,586.358 664.442,586.848L664.772,586.938C666.162,587.278 667.522,587.628 668.882,587.988C672.092,588.828 675.249,589.678 678.352,590.538C680.412,591.108 682.449,591.685 684.462,592.268C687.472,593.138 690.422,594.018 693.292,594.908C694.002,595.128 694.712,595.348 695.412,595.558C697.512,596.208 699.582,596.868 701.592,597.528C703.192,598.048 704.752,598.578 706.292,599.108C707.832,599.638 709.342,600.168 710.822,600.698C711.772,601.038 712.712,601.398 713.652,601.738C715.002,602.238 716.332,602.738 717.632,603.238C718.032,603.388 718.422,603.548 718.812,603.698C719.062,603.808 719.302,603.898 719.542,603.998C720.012,604.188 720.492,604.368 720.952,604.558C721.422,604.738 721.882,604.928 722.342,605.128C722.792,605.308 723.252,605.498 723.692,605.688C724.142,605.868 724.582,606.058 725.022,606.258C725.392,606.408 725.752,606.568 726.102,606.728C726.812,607.038 727.522,607.348 728.212,607.668C728.552,607.828 728.892,607.978 729.232,608.138L730.012,608.498C730.122,608.558 730.232,608.608 730.342,608.658C730.592,608.778 730.852,608.908 731.102,609.028C731.682,609.298 732.252,609.588 732.812,609.858C733.562,610.238 734.292,610.618 734.992,610.988C735.702,611.368 736.392,611.748 737.052,612.118C737.162,612.178 737.262,612.238 737.372,612.298C737.522,612.378 737.672,612.468 737.822,612.548C738.332,612.838 738.822,613.138 739.312,613.428C740.272,614.018 741.182,614.598 742.032,615.178C742.222,615.308 742.402,615.438 742.592,615.558C743.222,616.008 743.822,616.448 744.382,616.898C744.382,616.908 744.382,616.908 744.392,616.908C744.582,617.048 744.762,617.198 744.942,617.338C745.092,617.478 745.252,617.598 745.402,617.738C745.922,618.188 746.402,618.618 746.842,619.058C746.99,619.194 747.13,619.337 747.262,619.488C747.32,619.536 747.374,619.59 747.422,619.648C747.622,619.848 747.802,620.048 747.972,620.248C747.999,620.275 748.022,620.305 748.042,620.338C748.282,620.618 748.502,620.898 748.712,621.178C748.812,621.318 748.922,621.458 749.012,621.598C749.132,621.768 749.252,621.948 749.352,622.118C749.442,622.258 749.522,622.408 749.602,622.548C749.814,622.908 749.995,623.286 750.142,623.678C750.255,623.943 750.345,624.218 750.412,624.498C750.488,624.763 750.545,625.034 750.582,625.308Z" style="fill:rgb(21,44,75);fill-rule:nonzero;"/>
    </g>
    <g transform="matrix(1,0,0,1,-206.59,-163.871)">
        <path d="M750.582,625.308C750.572,627.058 750.552,629.508 750.472,632.538C750.462,632.958 750.442,633.388 750.432,633.828C750.332,638.078 750.182,643.328 749.972,649.258C749.962,649.618 749.952,649.968 749.932,650.328C749.652,657.568 749.212,665.998 748.452,679.348C747.042,704.008 744.582,682.738 742.112,691.388C735.252,687.168 727.732,682.748 719.692,678.208C718.242,677.388 716.779,676.565 715.302,675.738C699.222,666.768 681.262,657.368 662.512,648.058C661.772,647.688 661.022,647.318 660.282,646.958C617.332,625.728 570.452,605.078 532.472,591.298C525.142,588.638 518.142,586.238 511.562,584.128C497.702,579.698 485.722,576.598 476.502,575.258C466.902,573.858 460.272,574.358 457.592,577.248C457.492,575.208 457.389,573.255 457.282,571.388C457.242,570.768 457.202,570.158 457.162,569.558C457.224,569.393 457.304,569.236 457.382,569.078C457.393,569.055 457.401,569.031 457.412,569.008C457.431,568.956 457.455,568.906 457.482,568.858C457.512,568.796 457.545,568.736 457.582,568.678C457.615,568.607 457.655,568.54 457.702,568.478C457.792,568.338 457.892,568.188 458.002,568.048C458.083,567.943 458.17,567.843 458.262,567.748C458.293,567.7 458.33,567.656 458.372,567.618C458.412,567.578 458.452,567.528 458.502,567.478C458.524,567.446 458.551,567.419 458.582,567.398C458.661,567.307 458.748,567.223 458.842,567.148C459.199,566.82 459.58,566.519 459.982,566.248C460.122,566.158 460.272,566.068 460.412,565.968C461.42,565.365 462.481,564.856 463.582,564.448C463.962,564.308 464.342,564.178 464.752,564.038C464.902,563.998 465.042,563.948 465.192,563.898C465.412,563.828 465.632,563.758 465.862,563.708C467.002,563.368 468.232,563.078 469.562,562.808C469.962,562.728 470.382,562.648 470.802,562.578C471.142,562.518 471.492,562.458 471.842,562.398C474.812,561.928 478.182,561.578 481.902,561.348C482.252,561.328 482.602,561.308 482.952,561.288C483.362,561.268 483.772,561.248 484.192,561.228C484.542,561.208 484.902,561.198 485.262,561.188C485.612,561.168 485.972,561.158 486.342,561.148C487.352,561.118 488.392,561.088 489.452,561.068C492.472,561.018 495.652,561.038 498.992,561.108C500.542,561.138 502.122,561.188 503.742,561.258C503.842,561.258 503.952,561.268 504.052,561.268C505.462,561.308 506.892,561.378 508.342,561.448C509.362,561.498 510.392,561.548 511.422,561.608C512.392,561.668 513.372,561.728 514.362,561.798C515.132,561.838 515.902,561.898 516.682,561.948C517.342,561.998 518.002,562.048 518.662,562.088C519.452,562.148 520.242,562.208 521.042,562.268C522.142,562.358 523.242,562.448 524.362,562.538C525.472,562.638 526.602,562.738 527.732,562.838C528.862,562.938 530.002,563.048 531.142,563.158C531.262,563.168 531.372,563.178 531.482,563.188C532.522,563.298 533.562,563.398 534.612,563.508C540.432,564.098 546.422,564.788 552.582,565.578C556.262,566.048 559.989,566.551 563.762,567.088C569.492,567.898 575.312,568.778 581.172,569.718C587.042,570.668 592.946,571.671 598.882,572.728C600.382,572.998 601.882,573.268 603.392,573.548C605.232,573.888 607.072,574.234 608.912,574.588C610.072,574.808 611.232,575.028 612.392,575.258C613.772,575.528 615.162,575.798 616.542,576.068C625.632,577.868 634.672,579.788 643.492,581.798C644.942,582.128 646.392,582.468 647.832,582.798C650.712,583.468 653.566,584.148 656.392,584.838C657.172,585.028 657.942,585.218 658.712,585.408C660.642,585.888 662.552,586.368 664.442,586.848L664.442,586.858C664.552,586.878 664.662,586.908 664.772,586.938C666.152,587.288 667.522,587.638 668.882,587.998C672.092,588.838 675.249,589.685 678.352,590.538C680.412,591.118 682.452,591.688 684.462,592.268C687.472,593.148 690.422,594.028 693.292,594.908C694.002,595.128 694.712,595.348 695.412,595.558C697.512,596.218 699.572,596.875 701.592,597.528C703.192,598.048 704.752,598.578 706.292,599.108C707.832,599.638 709.342,600.168 710.822,600.698C711.782,601.038 712.722,601.388 713.652,601.728C715.012,602.228 716.332,602.728 717.632,603.238C718.032,603.388 718.422,603.548 718.812,603.698C719.542,603.978 720.252,604.268 720.952,604.558C721.422,604.738 721.882,604.928 722.342,605.128C722.792,605.308 723.252,605.498 723.692,605.688C724.142,605.868 724.582,606.058 725.022,606.258C725.392,606.408 725.752,606.568 726.102,606.728C726.812,607.038 727.522,607.348 728.212,607.668C728.552,607.828 728.892,607.978 729.232,608.138L730.012,608.498C730.122,608.558 730.232,608.608 730.342,608.658C731.192,609.058 732.012,609.458 732.812,609.858C733.562,610.238 734.292,610.618 734.992,610.988C735.822,611.428 736.612,611.858 737.372,612.298C737.522,612.378 737.672,612.468 737.822,612.548C738.332,612.838 738.822,613.138 739.312,613.428C740.272,614.018 741.182,614.598 742.032,615.178C742.872,615.758 743.652,616.328 744.382,616.898C744.382,616.908 744.382,616.908 744.392,616.908C744.742,617.188 745.082,617.468 745.402,617.738C745.922,618.188 746.402,618.618 746.842,619.058C746.99,619.194 747.13,619.337 747.262,619.488C747.32,619.536 747.374,619.59 747.422,619.648C747.632,619.878 747.842,620.108 748.042,620.338C748.282,620.618 748.502,620.898 748.712,621.178C748.812,621.318 748.922,621.458 749.012,621.598C749.132,621.768 749.252,621.948 749.352,622.118C749.442,622.258 749.522,622.408 749.602,622.548C749.815,622.908 749.995,623.286 750.142,623.678C750.252,623.944 750.342,624.218 750.412,624.498C750.488,624.763 750.545,625.034 750.582,625.308Z" style="fill-opacity:0.2;fill-rule:nonzero;"/>
    </g>
</svg>
